<svg width="29" height="28" viewBox="0 0 29 28" fill="none" xmlns="http://www.w3.org/2000/svg">
<g clip-path="url(#clip0_3367_4768)">
<path fill-rule="evenodd" clip-rule="evenodd" d="M15.5973 0.916196C14.8846 0.680929 14.1153 0.680929 13.4027 0.916196C13.0186 1.043 12.6967 1.24279 12.3938 1.46777C12.1087 1.67961 11.7861 1.95616 11.4153 2.27398L1.49071 10.7809C1.12003 11.0986 0.986389 11.6136 1.15578 12.0715C1.32516 12.5294 1.76175 12.8334 2.24997 12.8334H2.83331L2.83331 20.9245C2.83329 21.4878 2.83327 21.9738 2.86336 22.3752C2.89508 22.7982 2.96498 23.2202 3.15481 23.632C3.5037 24.3888 4.11119 24.9963 4.868 25.3452C5.27976 25.535 5.70179 25.6049 6.12483 25.6366C6.52617 25.6667 7.01219 25.6667 7.57552 25.6667H11.5833C12.2276 25.6667 12.75 25.1444 12.75 24.5L12.75 18.725C12.75 18.4082 12.7507 18.2349 12.7601 18.11L12.7613 18.0947L12.7766 18.0935C12.9015 18.0841 13.0748 18.0834 13.3916 18.0834H15.6083C15.9251 18.0834 16.0984 18.0841 16.2234 18.0935L16.2386 18.0947L16.2398 18.11C16.2492 18.2349 16.25 18.4082 16.25 18.725L16.25 24.5C16.25 24.8094 16.3729 25.1062 16.5917 25.325C16.8105 25.5438 17.1072 25.6667 17.4166 25.6667H21.4244C21.9878 25.6667 22.4738 25.6667 22.8751 25.6366C23.2982 25.6049 23.7202 25.535 24.132 25.3452C24.8888 24.9963 25.4962 24.3888 25.8451 23.632C26.035 23.2202 26.1049 22.7982 26.1366 22.3752C26.1667 21.9738 26.1667 21.4878 26.1666 20.9245V12.8334H26.75C27.2382 12.8334 27.6748 12.5294 27.8442 12.0715C28.0136 11.6136 27.8799 11.0986 27.5092 10.7809L17.5846 2.27398C17.2139 1.95616 16.8913 1.67961 16.6061 1.46777C16.3033 1.24279 15.9813 1.043 15.5973 0.916196ZM23.8333 10.7033V20.8834C23.8333 21.4994 23.8325 21.8971 23.8098 22.2007C23.7879 22.4923 23.7506 22.602 23.7261 22.6551C23.6098 22.9074 23.4073 23.1099 23.1551 23.2262C23.1019 23.2507 22.9923 23.288 22.7007 23.3098C22.3971 23.3326 21.9993 23.3334 21.3833 23.3334H18.5833L18.5833 18.691C18.5833 18.4213 18.5834 18.1585 18.5666 17.9355C18.5483 17.6911 18.5052 17.402 18.369 17.1065C18.1364 16.6019 17.7314 16.197 17.2268 15.9644C16.9313 15.8281 16.6422 15.785 16.3978 15.7667C16.1748 15.75 15.9121 15.75 15.6424 15.75H13.3576C13.0879 15.75 12.8251 15.75 12.6021 15.7667C12.3577 15.785 12.0686 15.8281 11.7731 15.9644C11.2686 16.197 10.8636 16.6019 10.631 17.1065C10.4947 17.402 10.4516 17.6911 10.4333 17.9355C10.4166 18.1585 10.4166 18.4213 10.4166 18.691L10.4166 23.3334H7.61664C7.00061 23.3334 6.60288 23.3326 6.29929 23.3098C6.00768 23.288 5.89803 23.2507 5.84487 23.2262C5.5926 23.1099 5.3901 22.9074 5.27381 22.6551C5.2493 22.602 5.21203 22.4923 5.19017 22.2007C5.1674 21.8971 5.16664 21.4994 5.16664 20.8834V11.6678C5.16664 11.6675 5.16664 11.6682 5.16664 11.6678C5.16664 11.6675 5.16664 11.6659 5.16664 11.6655V10.7033L12.9055 4.06984C13.3127 3.72079 13.5734 3.49823 13.7853 3.3408C13.9868 3.19115 14.081 3.14948 14.1342 3.1319C14.3717 3.05347 14.6282 3.05347 14.8657 3.1319C14.919 3.14948 15.0132 3.19115 15.2146 3.3408C15.4265 3.49823 15.6872 3.72079 16.0944 4.06984L23.8333 10.7033Z" fill="#919699"/>
</g>
<defs>
<clipPath id="clip0_3367_4768">
<rect width="28" height="28" fill="white" transform="translate(0.5)"/>
</clipPath>
</defs>
</svg>
