<svg width="208" height="60" viewBox="0 0 208 60" fill="none" xmlns="http://www.w3.org/2000/svg">
<rect width="208" height="60" rx="20" fill="#E5E8EE"/>
<g clip-path="url(#clip0_3367_7055)">
<path fill-rule="evenodd" clip-rule="evenodd" d="M30.0098 22.9167C30.661 22.9167 30.8507 22.9221 31.0202 22.9628C31.1903 23.0036 31.3528 23.0709 31.502 23.1623C31.6506 23.2534 31.7886 23.3838 32.249 23.8442L34.9058 26.5011C35.3663 26.9615 35.4967 27.0995 35.5877 27.2481C35.6791 27.3972 35.7465 27.5598 35.7873 27.7298C35.828 27.8993 35.8333 28.0891 35.8333 28.7402V33.9167C35.8333 34.6305 35.8327 35.1158 35.802 35.4909C35.7722 35.8562 35.7181 36.043 35.6517 36.1734C35.4919 36.487 35.2369 36.7419 34.9233 36.9017C34.793 36.9681 34.6061 37.0222 34.2408 37.0521C33.8657 37.0827 33.3805 37.0834 32.6667 37.0834H27.3333C26.6195 37.0834 26.1343 37.0827 25.7592 37.0521C25.3939 37.0222 25.207 36.9681 25.0767 36.9017C24.7631 36.7419 24.5081 36.487 24.3483 36.1734C24.2819 36.043 24.2278 35.8562 24.198 35.4909C24.1673 35.1158 24.1667 34.6305 24.1667 33.9167V26.0834C24.1667 25.3696 24.1673 24.8843 24.198 24.5093C24.2278 24.1439 24.2819 23.9571 24.3483 23.8267C24.5081 23.5131 24.7631 23.2582 25.0767 23.0984C25.207 23.032 25.3939 22.9779 25.7592 22.948C26.1343 22.9174 26.6195 22.9167 27.3333 22.9167H30.0098ZM31.4093 21.3422C31.0237 21.2496 30.6239 21.2498 30.0947 21.25L30.0098 21.2501H27.3333L27.2989 21.2501C26.6281 21.25 26.0745 21.25 25.6235 21.2869C25.1551 21.3252 24.7245 21.4073 24.32 21.6134C23.6928 21.9329 23.1829 22.4429 22.8633 23.0701C22.6572 23.4745 22.5751 23.9051 22.5368 24.3735C22.5 24.8245 22.5 25.3782 22.5 26.049V26.049V26.0834V33.9167V33.9511V33.9512C22.5 34.622 22.5 35.1756 22.5368 35.6266C22.5751 36.095 22.6572 36.5256 22.8633 36.93C23.1829 37.5572 23.6928 38.0672 24.32 38.3867C24.7245 38.5928 25.1551 38.675 25.6235 38.7132C26.0745 38.7501 26.6281 38.7501 27.2989 38.7501H27.3333H32.6667H32.7011C33.3719 38.7501 33.9255 38.7501 34.3765 38.7132C34.8449 38.675 35.2755 38.5928 35.68 38.3867C36.3072 38.0672 36.8171 37.5572 37.1367 36.93C37.3428 36.5256 37.4249 36.095 37.4632 35.6266C37.5 35.1756 37.5 34.622 37.5 33.9512V33.9167V28.7402L37.5 28.6553C37.5003 28.1262 37.5005 27.7263 37.4079 27.3408C37.3262 27.0006 37.1916 26.6755 37.0088 26.3773C36.8016 26.0392 36.5188 25.7566 36.1444 25.3826L36.0843 25.3226L33.4275 22.6657L33.3675 22.6056C32.9935 22.2313 32.7109 21.9484 32.3728 21.7413C32.0746 21.5585 31.7494 21.4238 31.4093 21.3422ZM26.6667 30.0001C26.2064 30.0001 25.8333 30.3731 25.8333 30.8334C25.8333 31.2936 26.2064 31.6667 26.6667 31.6667H31.6667C32.1269 31.6667 32.5 31.2936 32.5 30.8334C32.5 30.3731 32.1269 30.0001 31.6667 30.0001H26.6667ZM26.6667 33.3334C26.2064 33.3334 25.8333 33.7065 25.8333 34.1667C25.8333 34.627 26.2064 35.0001 26.6667 35.0001H33.3333C33.7936 35.0001 34.1667 34.627 34.1667 34.1667C34.1667 33.7065 33.7936 33.3334 33.3333 33.3334H26.6667Z" fill="#095880"/>
</g>
<path d="M55.928 36.24C54.776 36.24 53.7947 35.9893 52.984 35.488C52.1733 34.9813 51.552 34.2773 51.12 33.376C50.6933 32.4747 50.48 31.4293 50.48 30.24C50.48 29.0507 50.6933 28.0053 51.12 27.104C51.552 26.2027 52.1733 25.5013 52.984 25C53.7947 24.4933 54.776 24.24 55.928 24.24C57.0747 24.24 58.0533 24.4933 58.864 25C59.68 25.5013 60.3013 26.2027 60.728 27.104C61.1547 28.0053 61.368 29.0507 61.368 30.24C61.368 31.4293 61.1547 32.4747 60.728 33.376C60.3013 34.2773 59.68 34.9813 58.864 35.488C58.0533 35.9893 57.0747 36.24 55.928 36.24ZM55.928 34.648C56.744 34.6587 57.4213 34.48 57.96 34.112C58.504 33.7387 58.912 33.2213 59.184 32.56C59.456 31.8933 59.592 31.12 59.592 30.24C59.592 29.36 59.456 28.592 59.184 27.936C58.912 27.2747 58.504 26.76 57.96 26.392C57.4213 26.024 56.744 25.8373 55.928 25.832C55.112 25.8213 54.432 26 53.888 26.368C53.3493 26.736 52.944 27.2533 52.672 27.92C52.4 28.5867 52.2613 29.36 52.256 30.24C52.2507 31.12 52.384 31.8907 52.656 32.552C52.928 33.208 53.336 33.72 53.88 34.088C54.4293 34.456 55.112 34.6427 55.928 34.648ZM67.0278 39.6V36.152C66.1851 36.2853 65.4198 36.1947 64.7318 35.88C64.0438 35.5653 63.4971 35.0533 63.0918 34.344C62.6864 33.6347 62.4838 32.7493 62.4838 31.688C62.4838 30.6267 62.6864 29.7387 63.0918 29.024C63.4971 28.3093 64.0438 27.7947 64.7318 27.48C65.4198 27.1653 66.1851 27.0747 67.0278 27.208V24.592H68.5318V27.208C69.3744 27.0747 70.1398 27.1653 70.8278 27.48C71.5158 27.7947 72.0624 28.3093 72.4678 29.024C72.8731 29.7387 73.0758 30.6267 73.0758 31.688C73.0758 32.7493 72.8731 33.6347 72.4678 34.344C72.0624 35.0533 71.5158 35.5653 70.8278 35.88C70.1398 36.1947 69.3744 36.2853 68.5318 36.152V39.6H67.0278ZM67.0278 34.64V28.728C66.5958 28.6533 66.2038 28.6667 65.8518 28.768C65.5051 28.8693 65.2091 29.048 64.9638 29.304C64.7184 29.5547 64.5291 29.8827 64.3958 30.288C64.2624 30.688 64.1957 31.1547 64.1957 31.688C64.1957 32.2213 64.2624 32.688 64.3958 33.088C64.5344 33.488 64.7291 33.816 64.9798 34.072C65.2358 34.3227 65.5371 34.4987 65.8837 34.6C66.2304 34.696 66.6118 34.7093 67.0278 34.64ZM68.5318 34.64C68.9478 34.7093 69.3291 34.696 69.6758 34.6C70.0224 34.504 70.3211 34.3307 70.5718 34.08C70.8278 33.8293 71.0224 33.504 71.1558 33.104C71.2944 32.6987 71.3638 32.2267 71.3638 31.688C71.3638 31.144 71.2971 30.672 71.1638 30.272C71.0304 29.8667 70.8411 29.5387 70.5958 29.288C70.3504 29.032 70.0518 28.856 69.6998 28.76C69.3531 28.664 68.9638 28.6533 68.5318 28.728V34.64ZM78.5908 36.24C77.7268 36.24 76.9774 36.0453 76.3428 35.656C75.7081 35.2667 75.2174 34.7307 74.8708 34.048C74.5294 33.36 74.3588 32.568 74.3588 31.672C74.3588 30.7707 74.5348 29.9787 74.8868 29.296C75.2388 28.608 75.7321 28.0747 76.3668 27.696C77.0014 27.312 77.7428 27.12 78.5908 27.12C79.4548 27.12 80.2041 27.3147 80.8388 27.704C81.4734 28.0933 81.9641 28.6293 82.3108 29.312C82.6574 29.9947 82.8308 30.7813 82.8308 31.672C82.8308 32.5733 82.6548 33.368 82.3028 34.056C81.9561 34.7387 81.4654 35.2747 80.8308 35.664C80.1961 36.048 79.4494 36.24 78.5908 36.24ZM78.5908 34.664C79.4174 34.664 80.0334 34.3867 80.4388 33.832C80.8494 33.272 81.0548 32.552 81.0548 31.672C81.0548 30.7707 80.8468 30.0507 80.4308 29.512C80.0201 28.968 79.4068 28.696 78.5908 28.696C78.0308 28.696 77.5694 28.824 77.2068 29.08C76.8441 29.3307 76.5748 29.68 76.3988 30.128C76.2228 30.5707 76.1348 31.0853 76.1348 31.672C76.1348 32.5787 76.3428 33.304 76.7588 33.848C77.1748 34.392 77.7854 34.664 78.5908 34.664ZM88.6448 36.24C87.8181 36.24 87.1248 36.04 86.5648 35.64C86.0048 35.2347 85.5808 34.688 85.2928 34C85.0048 33.312 84.8608 32.536 84.8608 31.672C84.8608 30.808 85.0021 30.032 85.2848 29.344C85.5728 28.656 85.9941 28.1147 86.5488 27.72C87.1088 27.32 87.7968 27.12 88.6128 27.12C89.4234 27.12 90.1221 27.32 90.7088 27.72C91.3008 28.1147 91.7568 28.656 92.0768 29.344C92.3968 30.0267 92.5568 30.8027 92.5568 31.672C92.5568 32.536 92.3968 33.3147 92.0768 34.008C91.7621 34.696 91.3114 35.24 90.7248 35.64C90.1434 36.04 89.4501 36.24 88.6448 36.24ZM84.5808 39.84V27.36H86.0688V33.576H86.2608V39.84H84.5808ZM88.4128 34.728C88.9461 34.728 89.3861 34.592 89.7328 34.32C90.0848 34.048 90.3461 33.6827 90.5168 33.224C90.6928 32.76 90.7808 32.2427 90.7808 31.672C90.7808 31.1067 90.6928 30.5947 90.5168 30.136C90.3461 29.6773 90.0821 29.312 89.7248 29.04C89.3674 28.768 88.9114 28.632 88.3568 28.632C87.8341 28.632 87.4021 28.76 87.0608 29.016C86.7248 29.272 86.4741 29.6293 86.3088 30.088C86.1488 30.5467 86.0688 31.0747 86.0688 31.672C86.0688 32.2693 86.1488 32.7973 86.3088 33.256C86.4688 33.7147 86.7221 34.0747 87.0688 34.336C87.4154 34.5973 87.8634 34.728 88.4128 34.728ZM94.3151 36V27.36H95.7151L98.9071 33.696L102.091 27.36H103.499V36H101.883V30.784L99.2831 36H98.5231L95.9231 30.784V36H94.3151ZM113.025 27.36V36H111.417V29.992L107.097 36H105.737V27.36H107.345V33.248L111.673 27.36H113.025ZM117.493 36V28.864H114.541V27.36H122.117V28.864H119.165V36H117.493ZM123.628 36V27.36H125.308V30.36H127.012C127.257 30.36 127.518 30.3653 127.796 30.376C128.078 30.3867 128.321 30.4133 128.524 30.456C128.988 30.552 129.388 30.712 129.724 30.936C130.065 31.16 130.329 31.4587 130.516 31.832C130.702 32.2 130.796 32.6533 130.796 33.192C130.796 33.944 130.598 34.544 130.204 34.992C129.814 35.4347 129.286 35.7333 128.62 35.888C128.406 35.936 128.153 35.968 127.86 35.984C127.572 35.9947 127.308 36 127.068 36H123.628ZM125.308 34.656H127.164C127.297 34.656 127.449 34.6507 127.62 34.64C127.79 34.6293 127.948 34.6053 128.092 34.568C128.348 34.4933 128.577 34.3413 128.78 34.112C128.982 33.8827 129.084 33.576 129.084 33.192C129.084 32.7973 128.982 32.4827 128.78 32.248C128.582 32.0133 128.332 31.8613 128.028 31.792C127.884 31.7547 127.737 31.7307 127.588 31.72C127.438 31.7093 127.297 31.704 127.164 31.704H125.308V34.656ZM135.761 36V24.48H143.121V26.056H137.433V29.288H142.161V30.864H137.433V34.424H143.121V36H135.761ZM144.882 31.624V30.28H149.682V31.624H144.882ZM155.817 36.24C154.99 36.24 154.297 36.04 153.737 35.64C153.177 35.2347 152.753 34.688 152.465 34C152.177 33.312 152.033 32.536 152.033 31.672C152.033 30.808 152.174 30.032 152.457 29.344C152.745 28.656 153.166 28.1147 153.721 27.72C154.281 27.32 154.969 27.12 155.785 27.12C156.595 27.12 157.294 27.32 157.881 27.72C158.473 28.1147 158.929 28.656 159.249 29.344C159.569 30.0267 159.729 30.8027 159.729 31.672C159.729 32.536 159.569 33.3147 159.249 34.008C158.934 34.696 158.483 35.24 157.897 35.64C157.315 36.04 156.622 36.24 155.817 36.24ZM151.753 39.84V27.36H153.241V33.576H153.433V39.84H151.753ZM155.585 34.728C156.118 34.728 156.558 34.592 156.905 34.32C157.257 34.048 157.518 33.6827 157.689 33.224C157.865 32.76 157.953 32.2427 157.953 31.672C157.953 31.1067 157.865 30.5947 157.689 30.136C157.518 29.6773 157.254 29.312 156.897 29.04C156.539 28.768 156.083 28.632 155.529 28.632C155.006 28.632 154.574 28.76 154.233 29.016C153.897 29.272 153.646 29.6293 153.481 30.088C153.321 30.5467 153.241 31.0747 153.241 31.672C153.241 32.2693 153.321 32.7973 153.481 33.256C153.641 33.7147 153.894 34.0747 154.241 34.336C154.587 34.5973 155.035 34.728 155.585 34.728ZM165.247 36.24C164.383 36.24 163.634 36.0453 162.999 35.656C162.364 35.2667 161.874 34.7307 161.527 34.048C161.186 33.36 161.015 32.568 161.015 31.672C161.015 30.7707 161.191 29.9787 161.543 29.296C161.895 28.608 162.388 28.0747 163.023 27.696C163.658 27.312 164.399 27.12 165.247 27.12C166.111 27.12 166.86 27.3147 167.495 27.704C168.13 28.0933 168.62 28.6293 168.967 29.312C169.314 29.9947 169.487 30.7813 169.487 31.672C169.487 32.5733 169.311 33.368 168.959 34.056C168.612 34.7387 168.122 35.2747 167.487 35.664C166.852 36.048 166.106 36.24 165.247 36.24ZM165.247 34.664C166.074 34.664 166.69 34.3867 167.095 33.832C167.506 33.272 167.711 32.552 167.711 31.672C167.711 30.7707 167.503 30.0507 167.087 29.512C166.676 28.968 166.063 28.696 165.247 28.696C164.687 28.696 164.226 28.824 163.863 29.08C163.5 29.3307 163.231 29.68 163.055 30.128C162.879 30.5707 162.791 31.0853 162.791 31.672C162.791 32.5787 162.999 33.304 163.415 33.848C163.831 34.392 164.442 34.664 165.247 34.664ZM171.405 36V24.24H173.077V36H171.405ZM175.639 25.944V24.32H177.311V25.944H175.639ZM175.639 36V27.36H177.311V36H175.639ZM183.018 36.232C181.967 36.232 181.111 36 180.45 35.536C179.788 35.072 179.383 34.4187 179.234 33.576L180.946 33.312C181.052 33.76 181.298 34.1147 181.682 34.376C182.071 34.632 182.554 34.76 183.13 34.76C183.652 34.76 184.06 34.6533 184.354 34.44C184.652 34.2267 184.802 33.9333 184.802 33.56C184.802 33.3413 184.748 33.1653 184.642 33.032C184.54 32.8933 184.324 32.7627 183.994 32.64C183.663 32.5173 183.159 32.3653 182.482 32.184C181.74 31.992 181.151 31.7867 180.714 31.568C180.282 31.344 179.972 31.0853 179.786 30.792C179.604 30.4933 179.514 30.1333 179.514 29.712C179.514 29.1893 179.652 28.7333 179.93 28.344C180.207 27.9547 180.596 27.6533 181.098 27.44C181.604 27.2267 182.196 27.12 182.874 27.12C183.535 27.12 184.124 27.224 184.642 27.432C185.159 27.64 185.578 27.936 185.898 28.32C186.218 28.6987 186.41 29.144 186.474 29.656L184.762 29.968C184.703 29.552 184.508 29.224 184.178 28.984C183.847 28.744 183.418 28.6133 182.89 28.592C182.383 28.5707 181.972 28.656 181.658 28.848C181.343 29.0347 181.186 29.2933 181.186 29.624C181.186 29.816 181.244 29.9787 181.362 30.112C181.484 30.2453 181.719 30.3733 182.066 30.496C182.412 30.6187 182.924 30.7653 183.602 30.936C184.327 31.1227 184.903 31.3307 185.33 31.56C185.756 31.784 186.06 32.0533 186.242 32.368C186.428 32.6773 186.522 33.0533 186.522 33.496C186.522 34.3493 186.21 35.0187 185.586 35.504C184.967 35.9893 184.111 36.232 183.018 36.232Z" fill="#095880"/>
<defs>
<clipPath id="clip0_3367_7055">
<rect width="20" height="20" fill="white" transform="translate(20 20)"/>
</clipPath>
</defs>
</svg>
